<svg xmlns="http://www.w3.org/2000/svg" width="1280" height="720" viewBox="0 0 1280 720">
  <defs>
    <linearGradient id="bg" x1="0" y1="0" x2="1" y2="1">
      <stop offset="0%" stop-color="#111827"/>
      <stop offset="50%" stop-color="#312e81"/>
      <stop offset="100%" stop-color="#0f172a"/>
    </linearGradient>
    <radialGradient id="glow" cx="50%" cy="40%" r="60%">
      <stop offset="0%" stop-color="#facc15" stop-opacity="0.45"/>
      <stop offset="55%" stop-color="#38bdf8" stop-opacity="0.18"/>
      <stop offset="100%" stop-color="#020617" stop-opacity="0"/>
    </radialGradient>
  </defs>

  <rect width="1280" height="720" fill="url(#bg)"/>
  <rect width="1280" height="720" fill="url(#glow)"/>

  <circle cx="1030" cy="130" r="115" fill="#facc15" opacity="0.18"/>
  <circle cx="210" cy="585" r="170" fill="#38bdf8" opacity="0.13"/>
  <path d="M0 620 C210 520, 370 700, 610 585 C820 485, 980 600, 1280 500 L1280 720 L0 720 Z" fill="#020617" opacity="0.55"/>

  <rect x="58" y="58" width="1164" height="604" rx="34" fill="#020617" opacity="0.52"/>
  <rect x="74" y="74" width="1132" height="572" rx="26" fill="none" stroke="#e0f2fe" stroke-width="2" opacity="0.25"/>

  <text x="80" y="135" font-size="26" fill="#93c5fd" font-family="Arial, sans-serif">STORYVISION AI</text>
  <text x="80" y="205" font-size="54" font-weight="700" fill="#ffffff" font-family="Arial, sans-serif">Yolculuk</text>
  <text x="80" y="265" font-size="30" fill="#fde68a" font-family="Arial, sans-serif">Ruh hali: Meraklı</text>
  <text x="80" y="315" font-size="28" fill="#bae6fd" font-family="Arial, sans-serif">Görsel tarz: Anime</text>

  <text x="80" y="390" font-size="26" fill="#cbd5e1" font-family="Arial, sans-serif">Sahne promptu:</text>
  <text x="80" y="440" font-size="24" fill="#f8fafc">Anime tarzında, Aren gizemli bir yolu takip ediyor,</text>
<text x="80" y="474" font-size="24" fill="#f8fafc">fantastik atmosfer, dinamik kamera açısı</text>

  <text x="1070" y="610" text-anchor="middle" font-size="120" fill="#ffffff" opacity="0.12" font-family="Arial, sans-serif">2</text>
</svg>